Coordinates
version=1
nRows=10
nColumns=40
inDegrees=yes

Units are S.I. units (second, meters, Newtons, ...)
If the header above contains a line with 'inDegrees', this indicates whether rotational values are in degrees (yes) or radians (no).

endheader
time	pelvis_tilt	pelvis_list	pelvis_rotation	pelvis_tx	pelvis_ty	pelvis_tz	hip_flexion_r	hip_adduction_r	hip_rotation_r	knee_angle_r	knee_angle_r_beta	ankle_angle_r	subtalar_angle_r	mtp_angle_r	hip_flexion_l	hip_adduction_l	hip_rotation_l	knee_angle_l	knee_angle_l_beta	ankle_angle_l	subtalar_angle_l	mtp_angle_l	lumbar_extension	lumbar_bending	lumbar_rotation	arm_flex_r	arm_add_r	arm_rot_r	elbow_flex_r	pro_sup_r	wrist_flex_r	wrist_dev_r	arm_flex_l	arm_add_l	arm_rot_l	elbow_flex_l	pro_sup_l	wrist_flex_l	wrist_dev_l
      4.89000000	    -21.04034469	      1.44506714	     -1.82046999	     -0.30915171	      0.89388309	     -1.16174757	     13.59599715	     -2.39438690	      7.90221284	     81.69335322	      1.42581799	     -9.36728291	      0.00000000	      0.00000000	     56.29682234	      3.58341556	     -3.65687854	     65.18252595	      1.13764969	     18.62953878	      0.00000000	      0.00000000	     -8.13929875	     -4.95758361	      2.74212821	     89.94520212	     -0.78209256	     14.14634050	     40.96023160	     82.12763448	      0.00000000	      0.00000000	     89.96391604	     -5.63869331	     16.74637492	     47.10633254	     79.36701479	      0.00000000	      0.00000000
      4.89500000	    -20.83596498	      1.44630378	     -1.72962331	     -0.30828808	      0.89553843	     -1.16192998	     13.39069227	     -2.42427488	      7.78001815	     81.61074058	      1.42437613	     -9.38185135	      0.00000000	      0.00000000	     55.84811148	      3.67225190	     -3.63247703	     64.83075832	      1.13151019	     18.55827558	      0.00000000	      0.00000000	     -8.14445833	     -4.95307178	      2.54423494	     89.94447320	     -0.65491492	     14.28993563	     40.73106520	     82.21432461	      0.00000000	      0.00000000	     89.96365826	     -5.76899468	     16.86900269	     47.09028780	     79.57960916	      0.00000000	      0.00000000
      4.90000000	    -20.73945906	      1.38756757	     -1.59331165	     -0.30738621	      0.89716333	     -1.16208658	     13.29589232	     -2.40479685	      7.57953801	     81.58946276	      1.42400476	     -9.35259666	      0.00000000	      0.00000000	     55.51818283	      3.70471179	     -3.63112959	     64.49308030	      1.12561660	     18.44293333	      0.00000000	      0.00000000	     -8.05523011	     -4.87410265	      2.44355102	     89.94351133	     -0.66506033	     14.37815445	     40.56263383	     82.24309809	      0.00000000	      0.00000000	     89.96334379	     -5.75114137	     16.94485871	     47.02231699	     79.64217872	      0.00000000	      0.00000000
      4.90500000	    -20.65036517	      1.33869528	     -1.48298443	     -0.30661990	      0.89879690	     -1.16217266	     13.24903123	     -2.34435437	      7.46600757	     81.50244827	      1.42248607	     -9.37485676	      0.00000000	      0.00000000	     55.19029723	      3.72980697	     -3.61466121	     64.14697419	      1.11957590	     18.33082105	      0.00000000	      0.00000000	     -7.96360002	     -4.81516704	      2.37238200	     89.94237545	     -0.63404406	     14.43155942	     40.36498673	     82.26556271	      0.00000000	      0.00000000	     89.96303382	     -5.74014552	     16.99567189	     47.00050661	     79.69665648	      0.00000000	      0.00000000
      4.91000000	    -20.38522685	      1.45495360	     -1.27356679	     -0.30545142	      0.90047322	     -1.16263780	     12.92884957	     -2.58952895	      7.17450513	     81.40885767	      1.42085261	     -9.45849828	      0.00000000	      0.00000000	     54.65107662	      4.07425864	     -3.48665859	     63.75413362	      1.11271954	     18.19687856	      0.00000000	      0.00000000	     -8.02549442	     -4.88123330	      2.05382797	     89.94153040	     -0.42069147	     14.55214501	     40.01050429	     82.34642686	      0.00000000	      0.00000000	     89.96288765	     -5.90670429	     17.13514030	     46.89537447	     79.88818717	      0.00000000	      0.00000000
      4.91500000	    -20.26534404	      1.34238973	     -1.17997948	     -0.30466662	      0.90213619	     -1.16267100	     12.82964692	     -2.45282242	      7.03419688	     81.34990835	      1.41982375	     -9.45885772	      0.00000000	      0.00000000	     54.28725910	      4.02793839	     -3.45307906	     63.39570920	      1.10646386	     18.07965982	      0.00000000	      0.00000000	     -7.95180490	     -4.75795345	      1.97629653	     89.94032653	     -0.40630569	     14.66307643	     39.82843360	     82.38036238	      0.00000000	      0.00000000	     89.96243958	     -5.93107310	     17.23004759	     46.82735340	     79.96004780	      0.00000000	      0.00000000
      4.92000000	    -20.13572814	      1.29864518	     -1.09058705	     -0.30383778	      0.90375542	     -1.16278042	     12.74631419	     -2.39820606	      6.97795430	     81.31776240	      1.41926269	     -9.48431662	      0.00000000	      0.00000000	     53.93067996	      4.06887729	     -3.38892493	     63.07813166	      1.10092108	     17.96786171	      0.00000000	      0.00000000	     -7.90346360	     -4.69762213	      1.91826657	     89.93928559	     -0.40008803	     14.74502289	     39.62838321	     82.41241314	      0.00000000	      0.00000000	     89.96214041	     -5.89576896	     17.32518140	     46.81667114	     80.02492953	      0.00000000	      0.00000000
      4.92500000	    -19.80754023	      1.26776463	     -0.82952407	     -0.30261677	      0.90561459	     -1.16328323	     12.32709080	     -2.47443145	      6.61263791	     81.11720267	      1.41576227	     -9.47057279	      0.00000000	      0.00000000	     53.33373049	      4.31125494	     -3.16312277	     62.73117404	      1.09486553	     17.82241542	      0.00000000	      0.00000000	     -8.05151398	     -4.61044925	      1.64962161	     89.93836381	     -0.35440853	     14.95987617	     39.42626935	     82.54354455	      0.00000000	      0.00000000	     89.96196616	     -5.98498458	     17.52456826	     46.68090589	     80.25775140	      0.00000000	      0.00000000
      4.93000000	    -19.72880802	      1.19890305	     -0.77545530	     -0.30196416	      0.90717258	     -1.16328875	     12.35482602	     -2.41855125	      6.46775521	     81.15717621	      1.41645994	     -9.44722618	      0.00000000	      0.00000000	     53.04953703	      4.27323557	     -3.15697670	     62.42404818	      1.08950517	     17.73957208	      0.00000000	      0.00000000	     -7.95596557	     -4.51796990	      1.66099644	     89.93666834	     -0.32667081	     14.99036562	     39.24935463	     82.56389917	      0.00000000	      0.00000000	     89.96160145	     -5.95355480	     17.58269223	     46.66018323	     80.30334720	      0.00000000	      0.00000000
      4.93500000	    -19.62984998	      1.14618029	     -0.65373276	     -0.30111990	      0.90874465	     -1.16338346	     12.27211693	     -2.26828324	      6.48165934	     81.12643126	      1.41592334	     -9.48588836	      0.00000000	      0.00000000	     52.69827404	      4.31916969	     -3.08968500	     62.03637732	      1.08273904	     17.62359661	      0.00000000	      0.00000000	     -7.86479134	     -4.45442406	      1.52062199	     89.93554507	     -0.26130269	     15.09456495	     39.01427781	     82.59873829	      0.00000000	      0.00000000	     89.96132549	     -5.96460426	     17.68210823	     46.53702674	     80.36342095	      0.00000000	      0.00000000
